<mxfile host="app.diagrams.net" modified="2024-06-25T11:55:48.486Z" agent="Mozilla/5.0 (Windows NT 10.0; Win64; x64) AppleWebKit/537.36 (KHTML, like Gecko) Chrome/125.0.0.0 Safari/537.36" version="24.6.1" etag="W10J8YS-hHIGF-u92Zwb" type="github">
  <diagram name="ページ1" id="YS5-BisKr0SX6eSt1PM5">
    <mxGraphModel>
      <root>
        <mxCell id="0" />
        <mxCell id="1" parent="0" />
      </root>
    </mxGraphModel>
  </diagram>
</mxfile>
